<svg id="visual" viewBox="0 0 900 300" width="900" height="300" xmlns="http://www.w3.org/2000/svg" xmlns:xlink="http://www.w3.org/1999/xlink" version="1.1"><rect x="0" y="0" width="900" height="300" fill="#0d1117"></rect><path d="M0 75L11.5 82C23 89 46 103 69 108.5C92 114 115 111 138.2 104.3C161.3 97.7 184.7 87.3 207.8 83.7C231 80 254 83 277 89.7C300 96.3 323 106.7 346 106C369 105.3 392 93.7 415.2 94.8C438.3 96 461.7 110 484.8 107.3C508 104.7 531 85.3 554 83.5C577 81.7 600 97.3 623 107C646 116.7 669 120.3 692.2 113.7C715.3 107 738.7 90 761.8 88C785 86 808 99 831 104.5C854 110 877 108 888.5 107L900 106L900 301L888.5 301C877 301 854 301 831 301C808 301 785 301 761.8 301C738.7 301 715.3 301 692.2 301C669 301 646 301 623 301C600 301 577 301 554 301C531 301 508 301 484.8 301C461.7 301 438.3 301 415.2 301C392 301 369 301 346 301C323 301 300 301 277 301C254 301 231 301 207.8 301C184.7 301 161.3 301 138.2 301C115 301 92 301 69 301C46 301 23 301 11.5 301L0 301Z" fill="#00ace6"></path><path d="M0 124L11.5 127.8C23 131.7 46 139.3 69 136.2C92 133 115 119 138.2 115.2C161.3 111.3 184.7 117.7 207.8 126.3C231 135 254 146 277 147.5C300 149 323 141 346 133.2C369 125.3 392 117.7 415.2 119.3C438.3 121 461.7 132 484.8 136.3C508 140.7 531 138.3 554 140.5C577 142.7 600 149.3 623 150.3C646 151.3 669 146.7 692.2 144.3C715.3 142 738.7 142 761.8 138.3C785 134.7 808 127.3 831 124.2C854 121 877 122 888.5 122.5L900 123L900 301L888.5 301C877 301 854 301 831 301C808 301 785 301 761.8 301C738.7 301 715.3 301 692.2 301C669 301 646 301 623 301C600 301 577 301 554 301C531 301 508 301 484.8 301C461.7 301 438.3 301 415.2 301C392 301 369 301 346 301C323 301 300 301 277 301C254 301 231 301 207.8 301C184.7 301 161.3 301 138.2 301C115 301 92 301 69 301C46 301 23 301 11.5 301L0 301Z" fill="#2a80ae"></path><path d="M0 149L11.5 150.3C23 151.7 46 154.3 69 156C92 157.7 115 158.3 138.2 162C161.3 165.7 184.7 172.3 207.8 177.5C231 182.7 254 186.3 277 184.3C300 182.3 323 174.7 346 166.8C369 159 392 151 415.2 149.2C438.3 147.3 461.7 151.7 484.8 152C508 152.3 531 148.7 554 151.8C577 155 600 165 623 166.3C646 167.7 669 160.3 692.2 163.2C715.3 166 738.7 179 761.8 184.3C785 189.7 808 187.3 831 182.3C854 177.3 877 169.7 888.5 165.8L900 162L900 301L888.5 301C877 301 854 301 831 301C808 301 785 301 761.8 301C738.7 301 715.3 301 692.2 301C669 301 646 301 623 301C600 301 577 301 554 301C531 301 508 301 484.8 301C461.7 301 438.3 301 415.2 301C392 301 369 301 346 301C323 301 300 301 277 301C254 301 231 301 207.8 301C184.7 301 161.3 301 138.2 301C115 301 92 301 69 301C46 301 23 301 11.5 301L0 301Z" fill="#2b5778"></path><path d="M0 192L11.5 193.5C23 195 46 198 69 200.5C92 203 115 205 138.2 207C161.3 209 184.7 211 207.8 211.7C231 212.3 254 211.7 277 210.2C300 208.7 323 206.3 346 208.5C369 210.7 392 217.3 415.2 219C438.3 220.7 461.7 217.3 484.8 218.3C508 219.3 531 224.7 554 222.2C577 219.7 600 209.3 623 207C646 204.7 669 210.3 692.2 209.7C715.3 209 738.7 202 761.8 201C785 200 808 205 831 208.5C854 212 877 214 888.5 215L900 216L900 301L888.5 301C877 301 854 301 831 301C808 301 785 301 761.8 301C738.7 301 715.3 301 692.2 301C669 301 646 301 623 301C600 301 577 301 554 301C531 301 508 301 484.8 301C461.7 301 438.3 301 415.2 301C392 301 369 301 346 301C323 301 300 301 277 301C254 301 231 301 207.8 301C184.7 301 161.3 301 138.2 301C115 301 92 301 69 301C46 301 23 301 11.5 301L0 301Z" fill="#203245"></path><path d="M0 238L11.5 240.8C23 243.7 46 249.3 69 250.2C92 251 115 247 138.2 246.2C161.3 245.3 184.7 247.7 207.8 246.8C231 246 254 242 277 239.8C300 237.7 323 237.3 346 236.7C369 236 392 235 415.2 235.3C438.3 235.7 461.7 237.3 484.8 239C508 240.7 531 242.3 554 244.7C577 247 600 250 623 247.7C646 245.3 669 237.7 692.2 238.7C715.3 239.7 738.7 249.3 761.8 249.8C785 250.3 808 241.7 831 237.5C854 233.3 877 233.7 888.5 233.8L900 234L900 301L888.5 301C877 301 854 301 831 301C808 301 785 301 761.8 301C738.7 301 715.3 301 692.2 301C669 301 646 301 623 301C600 301 577 301 554 301C531 301 508 301 484.8 301C461.7 301 438.3 301 415.2 301C392 301 369 301 346 301C323 301 300 301 277 301C254 301 231 301 207.8 301C184.7 301 161.3 301 138.2 301C115 301 92 301 69 301C46 301 23 301 11.5 301L0 301Z" fill="#0d1117"></path></svg>